# xmcd CD database file
#
# Track frame offsets:
#	150
#	32810
#	59247
#	93822
#	125547
#	158847
#	184690
#	210510
#	231360
#
# Disc length: 3660 seconds
#
# Revision: 0
# Processed by: cddbd v1.4PL0 Copyright (c) Steve Scherf et al.
# Submitted via: CDex 1.50Beta5
#
DISCID=790e4a09
DTITLE=Wally Schnalle - Why Do They Call You That?
DYEAR=1997
DGENRE=Jazz
TTITLE0=181 North 1st.
TTITLE1=Monument
TTITLE2=Back In A Week
TTITLE3=Travesurra
TTITLE4=Pink Catawba
TTITLE5=You Know It
TTITLE6=10:20
TTITLE7=Kwaku
TTITLE8=It Should've Been
EXTD=YEAR: 1997
EXTT0=
EXTT1=
EXTT2=
EXTT3=
EXTT4=
EXTT5=
EXTT6=
EXTT7=
EXTT8=
PLAYORDER=
